<?xml version="1.0" encoding="utf-8"?>
<!-- Generator: Adobe Illustrator 22.0.1, SVG Export Plug-In . SVG Version: 6.00 Build 0)  -->
<svg version="1.1" id="图层_1" xmlns="http://www.w3.org/2000/svg" xmlns:xlink="http://www.w3.org/1999/xlink" x="0px" y="0px"
	 viewBox="0 0 200 200" style="enable-background:new 0 0 200 200;" xml:space="preserve">
<path d="M198.3,162.8c0.5,1.8,0.9,4.1,1.3,6.8c0.3,2.6,0.5,5.3,0.5,8c0,2.7-0.2,5.3-0.6,7.6c-0.4,2.4-1,4.2-1.8,5.3
	c-0.6,0.8-2,1.6-4.6,2.4c-2.6,0.8-5.8,1.5-9.6,2.1c-3.9,0.7-8.1,1.3-12.7,1.9s-9.3,1.1-14,1.5c-4.7,0.4-9.2,0.7-13.6,1
	c-4.3,0.2-8.2,0.4-11.5,0.4c-3.3,0-7.1-0.2-11.4-0.4c-4.2-0.3-8.7-0.6-13.4-1c-4.6-0.4-9.2-0.9-13.7-1.3c-4.5-0.5-8.6-1-12.4-1.6
	c-3.8-0.6-6.9-1.2-9.5-1.8c-2.6-0.6-4.2-1.2-4.9-1.7c-1-0.9-1.9-3.7-2.6-8.3c-0.6-4.6-0.5-10.6,0.6-17.8c0.6-4.2,2.4-7.4,5-9.5
	c2.7-2.1,5.9-3.9,9.6-5.2c3.7-1.3,7.5-2.4,11.4-3.5c3.9-1,7.4-2.4,10.4-4.5c2.4-1.6,4.2-3.1,5.4-4.3c1.3-1.3,2.1-2.7,2.8-3.9
	c0.6-1.3,0.9-2.8,0.9-4.2c0-1.4-0.1-3.1-0.2-5c-0.3-2.6-1.2-4.7-2.8-6.3c-1.6-1.5-3.3-3-5.2-4.5c-0.9-0.8-1.7-1.9-2.4-3.4
	c-0.7-1.4-1.3-2.9-1.9-4.3c-0.6-1.6-1-3.4-1.6-5.3c-0.8-0.3-1.6-0.7-2.4-1.2c-0.7-0.5-1.3-1.3-2-2.4c-0.8-1-1.4-2.5-2-4.3
	c-0.7-1.8-0.9-3.6-0.8-5.3c0.2-1.7,0.5-3,1-4.1c0.5-1.3,1.3-2.5,2.1-3.5c-0.1-4.2,0.1-8.6,0.6-12.9c0.5-3.7,1.3-7.5,2.4-11.6
	c1.1-4,2.8-7.8,5.3-11.2c2.1-3.1,4.5-5.7,7.2-7.7c2.6-2,5.3-3.5,8.1-4.6c2.8-1.1,5.6-1.9,8.3-2.3c2.8-0.4,5.4-0.6,7.9-0.6
	c6.8,0,12.7,1.4,18.1,4.2c5.3,2.8,9.2,5.7,11.7,8.9c2.9,3.6,5,7.5,6.4,12c1.4,4.4,2.4,8.6,3.1,12.3c0.7,4.5,0.9,9,0.8,13.4
	c0.6,0.6,1.3,1.3,1.8,2.1c0.4,0.8,0.8,1.8,1.1,3.1s0.4,2.8,0.1,4.6c-0.3,2.4-0.8,4.3-1.6,5.7c-0.8,1.4-1.6,2.6-2.4,3.4
	c-0.9,0.9-2,1.5-3.1,1.8c-0.6,2-1,3.8-1.6,5.3c-0.6,1.4-1.2,2.9-2,4.3c-0.8,1.4-1.7,2.5-2.5,3.1c-1,0.9-2,1.7-2.9,2.4
	c-0.9,0.7-1.6,1.3-2.3,2c-0.7,0.7-1.3,1.6-1.7,2.4c-0.5,0.9-0.9,2-1.1,3.4c-0.2,1.7-0.4,3.5-0.3,5.3c0.1,1.8,0.5,3.5,1.3,5.2
	c0.8,1.7,2,3.4,3.9,5c1.8,1.6,4.2,3,7.5,4.2c2.8,1.2,5.8,2.2,9.2,3.1c3.4,0.9,6.6,1.9,9.7,3.1c3.1,1.2,5.9,2.8,8.3,4.6
	C195.4,157.6,197.2,159.9,198.3,162.8 M92.5,126.4c-0.3,1.5-0.6,2.6-1,3.4c-0.4,0.8-1.3,1.7-2.8,2.6c-3.5,2.1-7.2,3.9-11.1,5.1
	c-4,1.3-7.8,2.8-11.4,4.3c-3.6,1.6-6.8,3.7-9.5,6.3c-2.7,2.6-4.4,6.2-5,11c-0.2,1.5-0.4,2.9-0.5,4.2c-0.1,1.4-0.2,2.7-0.3,3.9
	c-0.2,0.2-0.3,0.5-0.4,0.7c-0.1,0.2-0.2,0.4-0.4,0.7c-5.2-0.4-10.4-0.9-15.6-1.4c-5.3-0.5-10.1-1.2-14.5-1.8
	c-4.4-0.7-8.2-1.3-11.2-2c-3.1-0.6-5-1.3-5.7-2c-1.2-0.9-2-3.7-2.7-8.3c-0.6-4.6-0.4-10.6,0.7-18c0.6-4.1,2.4-7.2,5-9.4
	c2.8-2.1,5.9-3.9,9.7-5.1c3.7-1.3,7.5-2.4,11.4-3.5c3.9-1,7.4-2.5,10.4-4.3c2.4-1.6,4.2-3.1,5.5-4.3c1.3-1.3,2.1-2.7,2.7-4.1
	c0.6-1.4,0.8-2.8,0.8-4.2c0-1.4-0.1-3.1-0.2-4.7c-0.2-2.7-1.2-4.7-2.7-6.3c-1.5-1.5-3.2-3.1-5-4.6c-1-0.7-2-1.7-2.7-3.1
	c-0.7-1.4-1.3-2.9-1.9-4.3c-0.6-1.6-1-3.4-1.6-5.3c-0.8-0.3-1.6-0.7-2.4-1.2c-0.7-0.6-1.3-1.3-2-2.4c-0.7-1-1.4-2.5-2-4.3
	c-0.6-1.8-0.9-3.6-0.8-5.2c0.2-1.7,0.5-3.1,1-4.2c0.5-1.4,1.3-2.7,2.1-3.5c-0.2-4.2,0.1-8.6,0.6-12.9c0.6-3.6,1.4-7.4,2.6-11.5
	c1.2-4.1,3-7.8,5.3-11.1c2.1-3.1,4.5-5.7,7.2-7.7c2.6-2,5.3-3.5,8-4.6c2.7-1.1,5.4-1.9,8.3-2.3c2.8-0.4,5.5-0.6,8.1-0.6
	C75,0.1,81,1.5,86.3,4.3c5.3,2.8,9.3,5.7,11.9,9c1.7,2.2,2.8,4.3,3.2,6.2c0.5,1.9,1.1,4.2,1.9,6.7c-2.5,1.4-5.2,3.6-8,6.4
	c-2.8,2.8-5.3,5.7-7.5,8.6c-2.6,3.7-4.6,7.8-6,12.3c-1.3,4.5-2.3,8.6-3,12.5c-0.6,4.6-0.9,9.2-0.9,13.8c-1,1.2-1.9,2.5-2.4,3.9
	c-0.6,1.3-0.9,2.9-1,4.6c-0.2,1.8,0.2,3.7,0.8,5.8c0.7,2.3,1.4,4,2.1,5.1c0.8,1.2,1.5,2.1,2.2,2.8c0.8,0.8,1.6,1.3,2.4,1.6
	c0.6,2.1,1,4.1,1.6,6c0.5,1.6,1.2,3.2,1.9,4.9c0.8,1.7,1.7,2.8,2.7,3.7c0.9,0.8,1.7,1.4,2.1,2c0.6,0.6,0.9,1,1.3,1.5
	c0.3,0.5,0.6,1.1,0.6,1.9C92.1,124,92.2,125,92.5,126.4L92.5,126.4z"/>
</svg>
