<?xml version="1.0" encoding="utf-8"?>
<!-- Generator: Adobe Illustrator 22.0.1, SVG Export Plug-In . SVG Version: 6.00 Build 0)  -->
<svg version="1.1" id="图层_1" xmlns="http://www.w3.org/2000/svg" xmlns:xlink="http://www.w3.org/1999/xlink" x="0px" y="0px"
	 viewBox="0 0 200 200" style="enable-background:new 0 0 200 200;" xml:space="preserve">
<path d="M188.9,0H9.9C4.1,0,0,4.7,0,10.5v147.3L41.5,200h147.3c5.8,0,11.1-4.7,11.1-10.5V10.5C200,4.7,194.7,0,188.9,0z M68.4,173.7
	c0,2.9-2.4,5.3-5.3,5.3H52.6c-2.9,0-5.3-2.4-5.3-5.3v-21.1c0-2.9,2.4-5.3,5.3-5.3h10.5c2.9,0,5.3,2.4,5.3,5.3V173.7z M105.3,173.7
	c0,2.9-2.4,5.3-5.3,5.3H89.5c-2.9,0-5.3-2.4-5.3-5.3v-21.1c0-2.9,2.4-5.3,5.3-5.3H100c2.9,0,5.3,2.4,5.3,5.3V173.7z M142.1,173.7
	c0,2.9-2.4,5.3-5.3,5.3h-10.5c-2.9,0-5.3-2.4-5.3-5.3v-21.1c0-2.9,2.4-5.3,5.3-5.3h10.5c2.9,0,5.3,2.4,5.3,5.3V173.7z M178.9,173.7
	c0,2.9-2.4,5.3-5.3,5.3h-10.5c-2.9,0-5.3-2.4-5.3-5.3v-21.1c0-2.9,2.4-5.3,5.3-5.3h10.5c2.9,0,5.3,2.4,5.3,5.3V173.7z M178.9,105.3
	H21.1V89.5h157.9V105.3z M178.9,52.6c0,5.8-5.3,10.5-11.1,10.5H31c-5.8,0-9.9-4.8-9.9-10.5V10.5h157.9V52.6z"/>
</svg>
