<svg id="图层_1" data-name="图层 1" xmlns="http://www.w3.org/2000/svg" viewBox="0 0 144.38 193.29"><title>cz-8</title><path d="M39.41,85H160.59a11.74,11.74,0,0,1,11.6,12v87.73a11.73,11.73,0,0,1-11.6,12H39.41a11.73,11.73,0,0,1-11.6-12V97A11.74,11.74,0,0,1,39.41,85Zm54.14,58.49v18.6a1.28,1.28,0,0,0,1.29,1.33h10.32a1.29,1.29,0,0,0,1.29-1.33v-18.6a14.71,14.71,0,0,0,7.73-13.3c0-8-6.45-14.62-14.18-14.62s-14.18,6.65-14.18,14.62c0,6.65,2.58,10.64,7.73,13.29Z" transform="translate(-27.81 -3.36)"/><path d="M129.2,53.86c0-15.94-13.3-30.57-30.58-30.57-16,0-30.57,13.29-30.57,30.57V85.77H50.77V52.54a49.19,49.19,0,0,1,98.37,0v32.9H130.53L129.2,53.87Z" transform="translate(-27.81 -3.36)"/></svg>