<?xml version="1.0" encoding="utf-8"?>
<!-- Generator: Adobe Illustrator 22.0.1, SVG Export Plug-In . SVG Version: 6.00 Build 0)  -->
<svg version="1.1" id="图层_1" xmlns="http://www.w3.org/2000/svg" xmlns:xlink="http://www.w3.org/1999/xlink" x="0px" y="0px"
	 viewBox="0 0 200 200" style="enable-background:new 0 0 200 200;" xml:space="preserve">
<path d="M128.3,119.1"/>
<path d="M40.9,112.8V87.2V112.8z"/>
<path d="M185.7,0H32.2c-7.9,0-14.3,7.1-14.3,15.8v17.1v16.4H9c-5,0-9,3.7-9,8.2s4,8.2,9,8.2h9v68.5H9c-5,0-9,3.7-9,8.2
	c0,4.5,4,8.2,9,8.2h9v16.5v17.1c0,8.7,6.4,15.8,14.3,15.8h153.5c7.9,0,14.3-7.1,14.3-15.8V15.8C200,7.1,193.6,0,185.7,0z M108,180.2
	c-35.5,0-64.2-12.1-64.2-27.1c0-12.6,20.4-23.2,48.1-26.2v-8.6C79.4,110.3,70.1,93.6,70.1,75c0-26.1,8.7-47.2,37.8-47.2
	s37.8,21.1,37.8,47.2c0,18.6-9.3,35.3-21.7,43.4v8.6c27.6,3,48.1,13.6,48.1,26.2C172.2,168.1,143.5,180.2,108,180.2z"/>
</svg>
