<?xml version="1.0" standalone="no"?><!DOCTYPE svg PUBLIC "-//W3C//DTD SVG 1.1//EN" "http://www.w3.org/Graphics/SVG/1.1/DTD/svg11.dtd"><svg t="1533280573792" class="icon" style="" viewBox="0 0 1024 1024" version="1.1" xmlns="http://www.w3.org/2000/svg" p-id="43050" xmlns:xlink="http://www.w3.org/1999/xlink" width="200" height="200"><defs><style type="text/css"></style></defs><path d="M511.036689 735.126999c-38.291627 0-70.201317 35.522107-70.201317 78.148636 0 42.626529 31.90969 78.26905 70.201317 78.26905 38.291627 0 70.201317-35.522107 70.201317-78.26905C581.117592 770.649106 549.207902 735.126999 511.036689 735.126999L511.036689 735.126999 511.036689 735.126999zM255.759172 642.649106l51.055503 56.835372c57.437441-56.835372 127.638758-85.373471 204.101599-85.373471 76.583255 0 153.046096 35.522107 204.101599 85.373471l51.055503-56.835372c-70.201317-71.044214-159.548448-113.791157-255.157103-113.791157C415.30762 528.978363 325.960489 578.709313 255.759172 642.649106L255.759172 642.649106 255.759172 642.649106zM128.240828 500.440263l51.055503 56.835372C268.523048 472.022578 383.39793 415.187206 511.036689 415.187206c127.638758 0 242.393227 56.835372 331.740357 149.313264l51.055503-63.939793c-102.111007-106.686736-236.011289-170.626529-382.795861-170.626529C364.252117 329.813735 230.231421 400.978363 128.240828 500.440263L128.240828 500.440263 128.240828 500.440263zM511.036689 130.76952c-197.719661 0-376.413923 85.373471-503.932267 227.4619l51.055503 56.835372C172.793979 287.187206 332.342427 208.918156 511.036689 208.918156c178.573848 0 338.122295 78.26905 459.379116 206.148636l51.055503-56.835372C887.330198 216.142992 708.75635 130.76952 511.036689 130.76952L511.036689 130.76952 511.036689 130.76952z" p-id="43051"></path></svg>