<?xml version="1.0" encoding="utf-8"?>
<!-- Generator: Adobe Illustrator 22.0.1, SVG Export Plug-In . SVG Version: 6.00 Build 0)  -->
<svg version="1.1" id="图层_1" xmlns="http://www.w3.org/2000/svg" xmlns:xlink="http://www.w3.org/1999/xlink" x="0px" y="0px"
	 viewBox="0 0 199.7 199.7" style="enable-background:new 0 0 199.7 199.7;" xml:space="preserve">
<title>删除</title>
<path d="M-0.3,0l200,200V0H-0.3z M183.4,89.7c-3,3-8,3-11,0L146.7,64v0L121,89.7c-3,3-8,3-11,0c-3-3-3-8,0-11L135.7,53L110,27.3
	c-2.7-3-2.7-7.6,0-10.5c2.9-3.2,7.8-3.4,11-0.5L146.7,42l25.7-25.7c3-3,8-3,11,0c3,3,3,8,0,11L157.7,53l25.7,25.7
	C186.5,81.7,186.5,86.7,183.4,89.7z"/>
</svg>
