<?xml version="1.0" encoding="utf-8"?>
<!-- Generator: Adobe Illustrator 22.0.1, SVG Export Plug-In . SVG Version: 6.00 Build 0)  -->
<svg version="1.1" id="图层_1" xmlns="http://www.w3.org/2000/svg" xmlns:xlink="http://www.w3.org/1999/xlink" x="0px" y="0px"
	 viewBox="0 0 200 200" style="enable-background:new 0 0 200 200;" xml:space="preserve">
<path d="M99.8-0.2c-55.2,0-100,44.8-100,100s44.8,100,100,100s100-44.8,100-100S155-0.2,99.8-0.2z M158.8,158.8
	c-7.7,7.7-16.6,13.7-26.5,17.9c-7.7,3.2-15.7,5.3-23.9,6.1v-32.5H91.7v32.5c-8.4-0.8-16.6-2.9-24.4-6.2
	c-9.9-4.2-18.8-10.2-26.5-17.9c-7.7-7.7-13.7-16.6-17.9-26.5c-3.2-7.7-5.3-15.7-6.1-23.9h33V91.8l-33,0c0.8-8.4,2.9-16.6,6.2-24.4
	c4.2-9.9,10.2-18.8,17.9-26.5c7.7-7.7,16.6-13.7,26.5-17.9c7.8-3.3,16-5.4,24.4-6.2v32.9h16.6V16.8c8.2,0.8,16.3,2.9,23.9,6.1
	c9.9,4.2,18.8,10.2,26.5,17.9c7.7,7.7,13.7,16.6,17.9,26.5c3.3,7.8,5.4,16,6.2,24.4h-32.7v16.6h32.7c-0.8,8.2-2.9,16.3-6.1,23.9
	C172.5,142.2,166.5,151.1,158.8,158.8z"/>
<path d="M100.8,81.1c-11,0-19.7,8.5-19.7,19.5s8.7,19.9,19.7,19.9c11,0,19.7-8.9,19.7-19.9S111.8,81.1,100.8,81.1z"/>
</svg>
