<?xml version="1.0" encoding="utf-8"?>
<!-- Generator: Adobe Illustrator 22.0.1, SVG Export Plug-In . SVG Version: 6.00 Build 0)  -->
<svg version="1.1" id="图层_1" xmlns="http://www.w3.org/2000/svg" xmlns:xlink="http://www.w3.org/1999/xlink" x="0px" y="0px"
	 viewBox="0 0 200 200" style="enable-background:new 0 0 200 200;" xml:space="preserve">
<g>
	<path d="M123.2,32.3c0.7,1.3,1.5,2.5,2.6,3.6c1,1,2.4,1.5,3.8,1.5h30.2v-3.2c0-1-0.1-2-0.4-3c-0.4-1.4-1.2-2.8-2.2-3.9
		c-1.5-2-3.2-3.8-5-5.6c-2.2-2.2-5.1-4.9-8.8-8.1s-6.2-5.5-8.2-7.1c-2-1.6-4.2-3.2-5.7-4.2c-1.2-0.8-2.6-1.5-4-1.9
		c-1.2-0.1-2.3-0.1-3.5,0h-0.4v23.8c0,1.2,0.2,2.3,0.6,3.5c0.3,1.4,0.8,2.8,1.5,4L123.2,32.3z"/>
	<path d="M129.8,49.9c-3.4,0.1-6.8-0.8-9.8-2.5c-2.7-1.5-4.9-3.6-6.7-6.1c-1.7-2.5-3-5.2-3.8-8.1c-0.8-2.6-1.2-5.3-1.2-8.1V0H30
		c-3.3-0.1-6.5,0.8-9.3,2.5c-2.9,1.7-5.4,3.7-7.7,6.1c-2.2,2.4-4,5.1-5.3,8.1c-1.3,2.8-1.9,5.9-1.9,9v136c0,3.4,0.9,6.7,2.7,9.6
		c1.8,3,4,5.7,6.6,8.1c2.6,2.3,5.5,4.2,8.6,5.7c2.5,1.3,5.3,2,8.1,2.2h56.6l39.8-40.4c-2.1,1.7-4.8,2.5-7.5,2.4H44.1
		c-3.4,0.1-6.6-1.2-9-3.6c-2.3-2.1-3.7-5.1-3.7-8.2c-0.1-3.4,1.3-6.6,3.7-8.9c2.3-2.5,5.6-3.8,9-3.7H121c3.4-0.1,6.7,1.3,9.1,3.7
		c2.5,2.3,3.8,5.5,3.8,8.9c0,2.5-0.8,4.9-2.3,7l28.1-28.4V49.9H129.8z M129.8,96.2c-2.5,2.3-5.7,3.6-9.1,3.6H44.1
		c-3.3,0.1-6.6-1.2-9-3.6c-2.4-2.3-3.8-5.5-3.7-8.8c-0.1-3.4,1.3-6.6,3.7-8.9c2.4-2.4,5.6-3.7,9-3.6H121c3.4-0.1,6.7,1.2,9.1,3.6
		c2.5,2.3,3.8,5.5,3.8,8.9c0,3.3-1.3,6.5-3.8,8.8H129.8z"/>
	<path d="M194.2,135.1c-0.1-1.4-0.4-2.7-0.8-4c-0.9-2-2.1-3.7-3.6-5.3c-1.2-1.4-2.7-2.6-4.4-3.5c-1.5-0.8-3.1-1.2-4.8-1.3
		c-1.9-0.2-3.9,0.5-5.3,1.9l-2.6,2.2c-0.9,0.9-1.8,1.7-2.7,2.4l17.4,16.8c0.5-0.4,1-0.8,1.5-1.2l1.5-1.5l1.9-1.9
		C193.5,138.5,194.3,136.8,194.2,135.1z M143.2,153.6l-7.4,7.3l-6.8,6.7l-5.1,5l-2.7,2.6c-1.4,1.3-2.5,2.8-3.3,4.5
		c-0.4,1-0.8,2-1.1,3.1l-1.5,4.7l-1.5,4.9c-0.4,1.6-0.6,2.8-0.8,3.6c-0.3,1.1-0.2,2.4,0.4,3.4c0.6,0.6,1.6,0.9,3.3,0.6
		c1.2-0.2,2.4-0.5,3.6-0.9c1.8-0.4,3.5-0.8,5.2-1.4c1.8-0.5,3.5-1.1,5.3-1.7l4.3-1.9l2.4-1.5l2.3-1.7l2.2-2.2l4.8-4.8l6.8-6.6
		l7.4-7.2l19.9-19.3l-17.2-16.8L143.2,153.6z"/>
</g>
</svg>
