<?xml version="1.0" encoding="utf-8"?>
<!-- Generator: Adobe Illustrator 22.0.1, SVG Export Plug-In . SVG Version: 6.00 Build 0)  -->
<svg version="1.1" id="图层_1" xmlns="http://www.w3.org/2000/svg" xmlns:xlink="http://www.w3.org/1999/xlink" x="0px" y="0px"
	 viewBox="0 0 200.2 200" style="enable-background:new 0 0 200.2 200;" xml:space="preserve">
<path d="M184.5,115.5H73.4c-8.6,0-15.6-6.9-15.6-15.5s7-15.5,15.6-15.5h111.1c8.6,0,15.5,6.9,15.5,15.5S193.1,115.5,184.5,115.5
	L184.5,115.5z M184.5,53.5H73.4c-8.6,0-15.6-6.9-15.6-15.5s7-15.5,15.6-15.5h111.1c8.6,0,15.5,6.9,15.5,15.5
	C200.1,46.5,193.1,53.5,184.5,53.5L184.5,53.5z M32.6,168.2l2.3,11.8c0,0.1,0,0.3,0,0.5c0,0.3-0.1,0.6-0.2,0.8
	c-0.2,0.2-0.4,0.3-0.8,0.3c-0.3,0-0.7-0.1-1-0.3L21.4,176l-11.3,5.7c-0.4,0.2-0.7,0.3-1,0.3c-0.4,0-0.6-0.1-0.8-0.3
	c-0.2-0.2-0.3-0.5-0.3-0.8c0-0.1,0-0.2,0-0.5l2-11.8l-9.4-8.3c-0.4-0.4-0.6-0.8-0.6-1.1c0-0.6,0.5-0.9,1.4-1.1l12.7-1.9l5.6-10.8
	c0.3-0.6,0.7-1,1.2-1c0.5,0,0.9,0.3,1.3,0.9l5.9,10.7l12.8,1.6c0.9,0.1,1.4,0.5,1.4,1.1l0,0c0,0.3-0.2,0.7-0.6,1.1L32.6,168.2
	L32.6,168.2z M32.6,104l2.3,11.8c0,0.1,0,0.3,0,0.5c0,0.3-0.1,0.6-0.2,0.8c-0.2,0.2-0.4,0.3-0.8,0.3c-0.3,0-0.7-0.1-1-0.3l-11.5-5.4
	l-11.3,5.7c-0.4,0.2-0.7,0.3-1,0.3c-0.4,0-0.6-0.1-0.8-0.3c-0.2-0.2-0.3-0.5-0.3-0.8c0-0.1,0-0.2,0-0.5l2-11.8L0.7,96
	c-0.4-0.4-0.6-0.8-0.6-1.1c0-0.6,0.5-0.9,1.4-1.1l12.7-1.9l5.6-10.8c0.3-0.7,0.7-1,1.2-1c0.5,0,0.9,0.3,1.3,0.9l5.9,10.7l12.8,1.6
	c0.9,0.1,1.4,0.5,1.4,1.1l0,0c0,0.3-0.2,0.7-0.6,1.1L32.6,104L32.6,104z M32.6,41.9l2.3,11.8c0,0.1,0,0.3,0,0.5
	c0,0.3-0.1,0.6-0.2,0.8c-0.2,0.2-0.4,0.4-0.8,0.4c-0.3,0-0.7-0.1-1-0.3l-11.5-5.4l-11.3,5.7c-0.4,0.2-0.7,0.3-1,0.3
	c-0.4,0-0.6-0.1-0.8-0.3C8.1,55.1,8,54.9,8,54.5c0-0.1,0-0.2,0-0.5l2-11.8l-9.4-8.3c-0.4-0.4-0.6-0.8-0.6-1.1c0-0.6,0.5-0.9,1.4-1.1
	l12.7-1.9L19.8,19c0.3-0.6,0.7-1,1.2-1c0.5,0,0.9,0.3,1.3,0.9l5.9,10.7l12.8,1.6c0.9,0.1,1.4,0.5,1.4,1.1l0,0c0,0.3-0.2,0.7-0.6,1.1
	L32.6,41.9L32.6,41.9z M73.4,148.7h111.1c8.6,0,15.6,6.9,15.6,15.5c0,8.6-7,15.5-15.6,15.5l-111.1,0c-8.6,0-15.6-6.9-15.6-15.5
	S64.8,148.7,73.4,148.7L73.4,148.7z"/>
</svg>
