<?xml version="1.0" encoding="utf-8"?>
<!-- Generator: Adobe Illustrator 22.0.1, SVG Export Plug-In . SVG Version: 6.00 Build 0)  -->
<svg version="1.1" id="图层_1" xmlns="http://www.w3.org/2000/svg" xmlns:xlink="http://www.w3.org/1999/xlink" x="0px" y="0px"
	 viewBox="0 0 199.9 200" style="enable-background:new 0 0 199.9 200;" xml:space="preserve">
<title>进场管理</title>
<g>
	<path d="M184.4,10H40.5c-3,0-5.4,2.4-5.4,5.4v84.9h7.7V23.2c0-2.7,2.1-4.8,4.8-4.8c0,0,0,0,0.1,0h129.5c2.7,0,4.8,2.1,4.8,4.8
		c0,0,0,0,0,0v141.2c0,2.7-2.2,4.8-4.8,4.8l0,0H47.7c-2.7,0-4.8-2.2-4.8-4.8l0,0v-25.2h-7.7v33.1c0,3,2.4,5.3,5.3,5.3c0,0,0,0,0.1,0
		h143.8c3,0,5.4-2.4,5.4-5.3V15.4C189.8,12.4,187.4,10,184.4,10z"/>
	<path d="M186.7,15.8l-84,23.4c-1.7,0.5-3.1,3-3.1,5.7V186c0,2.7,1.4,4.4,3.1,3.9l84-23.4c1.7-0.5,3.1-3,3.1-5.7V19.7
		C189.8,17,188.5,15.3,186.7,15.8z"/>
	<path d="M84.7,113.9l-2.8-1.7l-17.9-10.9c-2.3-1.4-5.4-0.6-6.8,1.7c-0.1,0.1-0.1,0.2-0.1,0.3l-1.1,2c-1.4,2.6-0.6,5.8,1.9,7.3
		l1,0.6H15.1c-2.9,0.1-5.1,2.5-5.1,5.3c0,0,0,0,0,0.1v2.3c-0.1,2.9,2.1,5.3,5,5.4c0,0,0,0,0.1,0h43.8l-1.1,0.7
		c-2.4,1.6-3.3,4.8-1.9,7.3l1.1,2c1.2,2.4,4.2,3.4,6.6,2.1c0.1-0.1,0.2-0.1,0.3-0.2l18-10.9l3.2-2C88,122,87.9,117.1,84.7,113.9
		L84.7,113.9z M80.2,111.8l0.4,0.1L80.2,111.8z"/>
</g>
</svg>
