<?xml version="1.0" encoding="utf-8"?>
<!-- Generator: Adobe Illustrator 22.0.1, SVG Export Plug-In . SVG Version: 6.00 Build 0)  -->
<svg version="1.1" id="图层_1" xmlns="http://www.w3.org/2000/svg" xmlns:xlink="http://www.w3.org/1999/xlink" x="0px" y="0px"
	 viewBox="0 0 200 200" style="enable-background:new 0 0 200 200;" xml:space="preserve">
<path d="M169.2,0H30.8C13.8,0,0,13.8,0,30.8v138.5C0,186.2,13.8,200,30.8,200h138.5c16.9,0,30.8-13.8,30.8-30.8V30.8
	C200,13.8,186.2,0,169.2,0z M138.5,146.2c0,4.3-3.4,7.7-7.7,7.7H53.8c-4.3,0-7.7-3.4-7.7-7.7l0,0c0-4.3,3.4-7.7,7.7-7.7h76.9
	C135.1,138.5,138.5,141.8,138.5,146.2L138.5,146.2z M46.2,100c0-4.3,3.4-7.7,7.7-7.7h61.5c4.3,0,7.7,3.4,7.7,7.7s-3.4,7.7-7.7,7.7
	H53.8C49.5,107.7,46.2,104.3,46.2,100z M146.2,61.5H53.8c-4.3,0-7.7-3.4-7.7-7.7s3.4-7.7,7.7-7.7h92.3c4.3,0,7.7,3.4,7.7,7.7
	S150.5,61.5,146.2,61.5z"/>
</svg>
