<svg id="图层_1" data-name="图层 1" xmlns="http://www.w3.org/2000/svg" viewBox="0 0 136.49 200"><defs><style>.cls-1{fill:#707070;}</style></defs><title>map1</title><path class="cls-1" d="M99.07,249.1" transform="translate(-31.75)"/><path d="M136.37,101.35a49.17,49.17,0,0,1-72.74,0s-12.89,8.76-13.5,13.49C72.48,143.18,100,200,100,200s25.41-59.64,49.87-85.16C149.26,110.11,136.37,101.35,136.37,101.35Zm0,0" transform="translate(-31.75)"/><path d="M100,0a68.25,68.25,0,1,0,68.25,68.25A68.25,68.25,0,0,0,100,0Zm9.53,84.8a19.06,19.06,0,1,1,9.54-16.52A19.08,19.08,0,0,1,109.53,84.8Z" transform="translate(-31.75)"/></svg>