<svg id="图层_1" data-name="图层 1" xmlns="http://www.w3.org/2000/svg" xmlns:xlink="http://www.w3.org/1999/xlink" viewBox="0 0 199.71 199.71"><defs><style>.cls-1{fill:none;}.cls-2{clip-path:url(#clip-path);}</style><clipPath id="clip-path" transform="translate(-0.13 -0.02)"><rect class="cls-1" x="0.13" width="199.73" height="200"/></clipPath></defs><title>gl</title><g class="cls-2"><path d="M100,0a99.86,99.86,0,1,0,99.87,99.84A99.88,99.88,0,0,0,100,0Zm11.5,109.2A17.9,17.9,0,1,1,92.4,92.77l31.75-17.41Zm59.73-5.89a7.13,7.13,0,0,1-7.13-7.13,64.08,64.08,0,0,0-128.16,0,7.13,7.13,0,1,1-14.26,0,78.34,78.34,0,1,1,156.68,0,7.14,7.14,0,0,1-7.13,7.13Zm0,0" transform="translate(-0.13 -0.02)"/></g></svg>