<?xml version="1.0" encoding="utf-8"?>
<!-- Generator: Adobe Illustrator 22.0.1, SVG Export Plug-In . SVG Version: 6.00 Build 0)  -->
<svg version="1.1" id="图层_1" xmlns="http://www.w3.org/2000/svg" xmlns:xlink="http://www.w3.org/1999/xlink" x="0px" y="0px"
	 viewBox="0 0 200 200" style="enable-background:new 0 0 200 200;" xml:space="preserve">
<title>合同执行</title>
<g>
	<path d="M63.2,105.6c-0.8,1-4.1,4.7-4.8,5.7c-3.1,4.7-4.1,10.5-2.9,16c1.8,6.1,7.9,6.8,12.5,7.3c10.5,1.1,21.3,0.4,31.9,0.4
		c10.4,0,20.8-0.1,31.1,0.1c6.1,0.1,11.3-1.6,13.9-7.4c2.7-6.2,1.3-12-3.3-16.9c-1.6-1.7-3.3-3.4-5-5.1c-3.9-3.9-3.8-7.8-0.4-12
		c3.3-3.8,6.4-7.8,9.2-12c14.5-22.8,9.5-52.8-11.7-69.6C112.4-5.2,81.5-3.7,62.3,15.4c-20.8,20.7-17.4,55,1.1,78.2
		C67.7,99,65.7,102.3,63.2,105.6z"/>
	<path d="M18.8,125.3h162.4c3.3,0,6,2.7,6,6v25.5c0,3.3-2.7,6-6,6H18.8c-3.3,0-6-2.7-6-6v-25.5C12.8,128,15.5,125.3,18.8,125.3z"/>
	<path d="M29.9,171.9h140.1c3.3,0,6,2.7,6,6V194c0,3.3-2.7,6-6,6H29.9c-3.3,0-6-2.7-6-6v-16.1C23.9,174.6,26.6,171.9,29.9,171.9z"/>
</g>
</svg>
