<?xml version="1.0" encoding="utf-8"?>
<!-- Generator: Adobe Illustrator 22.0.1, SVG Export Plug-In . SVG Version: 6.00 Build 0)  -->
<svg version="1.1" id="图层_1" xmlns="http://www.w3.org/2000/svg" xmlns:xlink="http://www.w3.org/1999/xlink" x="0px" y="0px"
	 viewBox="0 0 200 200" style="enable-background:new 0 0 200 200;" xml:space="preserve">
<path d="M196,172h-78.8l-7.4-24H180c4.1,0,8.2-2.1,11.3-5.2c3.1-3.1,4.7-7.7,4.7-11.8V35c0-4.1-1.6-7.7-4.7-10.8
	C188.2,21,184.1,20,180,20H20c-4.1,0-8.2,1-11.3,4.2C5.6,27.3,4,30.9,4,35v96c0,4.1,1.6,8.7,4.7,11.8c3.1,3.1,7.2,5.2,11.3,5.2h65.1
	l-7.4,24H4c-2.2,0-4,1.8-4,4s1.8,4,4,4h192c2.2,0,4-1.8,4-4S198.2,172,196,172z"/>
</svg>
