<svg id="图层_1" data-name="图层 1" xmlns="http://www.w3.org/2000/svg" viewBox="0 0 199.75 200"><defs><style>.cls-1{fill-rule:evenodd;}</style></defs><title>me</title><path class="cls-1" d="M86.68,3c-7,0-5.88,3.06-9.62,3.59s.75-1.48-10.48.62S51.39,23.55,50.85,28.81s-.67,20.06-.31,28c1.07,4.73-2.67,4.73-2.67,4.73-6.73-.42-3.71,20.22-3.71,20.22,1,5.08-.34,7.61,9.62,11.55,4.75,13.31,17.14,20.34,17.14,20.34s.07-1.31.25,4.77c-1-.5,8.23,15.53-22.72,20S11.57,162.28,5.73,167.77.12,199.89.12,199.89l199.76.11s-1.49-26.73-7.32-32.23-12.19-24.88-43.14-29.37c-30.1-4.29-20.39-20.09-20.6-21a8.58,8.58,0,0,1,.38-3,52.18,52.18,0,0,0,15.26-21.47c7.46-4.64,10.31-5.29,11.54-10.64,0,0,2.2-20.84-4.85-20.74,0,0-3.34,1.06-2.27-3.68s.71-19.53.17-24.79.28-20.3-11-22.41c-7.67-1.4-8.67,0-12.41-.54S112.73,0,105.77,0L86.68,3Z" transform="translate(-0.12)"/></svg>