<svg id="图层_1" data-name="图层 1" xmlns="http://www.w3.org/2000/svg" viewBox="0 0 200 192.9"><title>cz-9</title><path d="M14.74,84.8H135.91a11.74,11.74,0,0,1,11.61,12v87.73a11.74,11.74,0,0,1-11.61,12H14.74a11.73,11.73,0,0,1-11.6-12V96.76A11.73,11.73,0,0,1,14.74,84.8Zm54.14,58.48v18.61a1.28,1.28,0,0,0,1.29,1.33H80.48a1.29,1.29,0,0,0,1.29-1.33V143.28A14.68,14.68,0,0,0,89.51,130c0-8-6.45-14.62-14.18-14.62S61.14,122,61.14,130c0,6.65,2.58,10.63,7.74,13.29Z" transform="translate(-3.14 -3.55)"/><path d="M183.2,54.06c0-16-13.3-30.57-30.58-30.57-16,0-30.57,13.29-30.57,30.57V86H104.77V52.73a49.19,49.19,0,0,1,98.37,0v31.9H184.53L183.2,54.06Z" transform="translate(-3.14 -3.55)"/></svg>