<?xml version="1.0" encoding="utf-8"?>
<!-- Generator: Adobe Illustrator 22.0.1, SVG Export Plug-In . SVG Version: 6.00 Build 0)  -->
<svg version="1.1" id="图层_1" xmlns="http://www.w3.org/2000/svg" xmlns:xlink="http://www.w3.org/1999/xlink" x="0px" y="0px"
	 viewBox="0 0 200 200" style="enable-background:new 0 0 200 200;" xml:space="preserve">
<path d="M101,27.9c30.3,0,56.6,20.9,63.3,50.5h-20v14.4h36.1l19.7-36l-12.5-7.2l-11,19c-13.4-41.7-58.1-64.7-99.8-51.2
	c-32.8,10.5-55,41-55.1,75.5H36C36.1,56.9,65.1,27.9,101,27.9C101,27.9,101,27.9,101,27.9z M12.5,151.9L25,130.2
	c10.1,33.5,41,56.3,76,56.3c43.8,0,79.3-35.5,79.3-79.3l0,0h-14.4c0,35.9-29.1,64.9-64.9,64.9c-30.3,0-56.5-20.9-63.3-50.5h20v-14.4
	h-36L0,144.7L12.5,151.9L12.5,151.9z"/>
</svg>
