<svg id="图层_1" data-name="图层 1" xmlns="http://www.w3.org/2000/svg" viewBox="0 0 200 177.78"><title>main-r5</title><path d="M105.56,155.56H27.78a5.56,5.56,0,1,0,0,11.11h77.78a5.56,5.56,0,0,0,0-11.11Z" transform="translate(0 -11.11)"/><path d="M172.22,155.56H138.89a5.57,5.57,0,0,0-5.56,5.55,6,6,0,0,0,5.56,5.56h33.33a6,6,0,0,0,5.56-5.56,5.57,5.57,0,0,0-5.56-5.55Z" transform="translate(0 -11.11)"/><path d="M123.33,101.11a33.69,33.69,0,0,0,3.89-43.33L80.56,104.44A33,33,0,0,0,123.33,101.11Z" transform="translate(0 -11.11)"/><path d="M119.44,51.11a33,33,0,0,0-42.77,3.33,33.7,33.7,0,0,0-3.89,43.34Z" transform="translate(0 -11.11)"/><path d="M194.44,11.11H5.56A5.25,5.25,0,0,0,0,16.67V183.33a5.25,5.25,0,0,0,5.56,5.56H194.44a5.25,5.25,0,0,0,5.56-5.56V16.67A5.25,5.25,0,0,0,194.44,11.11ZM68.89,46.67a44.39,44.39,0,0,1,62.78,62.77c-17.78,17.23-45.56,17.23-62.78,0A44.59,44.59,0,0,1,68.89,46.67Zm120,131.11H11.11V144.44H188.89Z" transform="translate(0 -11.11)"/></svg>