<?xml version="1.0" encoding="utf-8"?>
<!-- Generator: Adobe Illustrator 22.0.1, SVG Export Plug-In . SVG Version: 6.00 Build 0)  -->
<svg version="1.1" id="图层_1" xmlns="http://www.w3.org/2000/svg" xmlns:xlink="http://www.w3.org/1999/xlink" x="0px" y="0px"
	 viewBox="0 0 200 200" style="enable-background:new 0 0 200 200;" xml:space="preserve">
<g>
	<path d="M176.8,19.3c-1.4-2.7-4.2-4.3-7.4-4.3L8.2,15c-3.2,0-6.1,1.7-7.5,4.4c-1.3,2.7-0.9,5.9,1.2,8.1l57.3,61.4v69.2
		c0,2.9,1.8,5.5,4.6,6.8l42.3,19.3c1.2,0.5,2.4,0.8,3.7,0.8c1.5,0,2.9-0.4,4.2-1.1c2.4-1.3,3.9-3.7,4-6.3l2.9-88.8l54.8-61.5
		C177.8,25.1,178.2,22,176.8,19.3z"/>
	<rect x="138.8" y="102.7" width="61.2" height="13.4"/>
	<rect x="138.8" y="131.8" width="61.2" height="13.4"/>
	<rect x="138.8" y="158.5" width="61.2" height="13.4"/>
</g>
</svg>
