<?xml version="1.0" encoding="utf-8"?>
<!-- Generator: Adobe Illustrator 22.0.1, SVG Export Plug-In . SVG Version: 6.00 Build 0)  -->
<svg version="1.1" id="图层_1" xmlns="http://www.w3.org/2000/svg" xmlns:xlink="http://www.w3.org/1999/xlink" x="0px" y="0px"
	 viewBox="0 0 200 200" style="enable-background:new 0 0 200 200;" xml:space="preserve">
<path d="M180.5,100.8c0,10.8,8.5,19.5,19.2,19.9c-2.8,13.4-8.2,25.8-15.6,36.7c-7.8-7-19.8-6.7-27.3,0.8c-7.4,7.4-7.8,19.2-1.1,27
	c-10.9,7.2-23.3,12.3-36.6,14.8c-0.9-10.2-9.4-18.1-19.8-18.1c-10.3,0-18.8,7.8-19.8,17.8c-13-2.7-25.2-7.9-35.8-15
	c6.1-7.8,5.6-19.2-1.6-26.4c-7.2-7.2-18.6-7.7-26.4-1.6C8.3,146,3,133.8,0.3,120.6c10-1,17.8-9.5,17.8-19.8c0-10.4-8-18.9-18.1-19.8
	c2.5-13.3,7.6-25.7,14.8-36.6c7.8,6.8,19.7,6.5,27.2-1c7.5-7.5,7.8-19.6,0.7-27.5C53.5,8.5,65.9,3.1,79.3,0.3
	c0.4,10.7,9.2,19.2,19.9,19.2c10.8,0,19.7-8.7,19.9-19.5c13.7,2.6,26.4,8,37.5,15.4c-7.7,7.8-7.7,20.3,0.1,28.1
	c7.7,7.7,20.3,7.8,28,0.1c7.4,11.1,12.6,23.7,15.2,37.2C189.2,81.1,180.5,89.9,180.5,100.8L180.5,100.8z M99.5,55.5
	c-23.8,0-43.1,19.3-43.1,43.1c0,23.8,19.3,43.1,43.1,43.1c23.8,0,43.1-19.3,43.1-43.1S123.3,55.5,99.5,55.5z"/>
</svg>
