<svg id="图层_1" data-name="图层 1" xmlns="http://www.w3.org/2000/svg" viewBox="0 0 200 199.88"><title>rl</title><path d="M162.51,199.94h-125A37.5,37.5,0,0,1,0,162.46V37.54A37.36,37.36,0,0,1,25,2.36V18.8a18.75,18.75,0,0,0,37.49,0V.06h75V18.8a18.75,18.75,0,0,0,37.49,0V2.36a37.36,37.36,0,0,1,25,35.18V162.46a37.49,37.49,0,0,1-37.49,37.48ZM175,62.52H25v99.94A12.49,12.49,0,0,0,37.51,175h125A12.49,12.49,0,0,0,175,162.46ZM125,125h25v25H125Zm0-37.47h25v25H125ZM87.5,125h25v25h-25Zm0-37.47h25v25h-25ZM50,125H75v25H50Zm0-37.47H75v25H50ZM156.26,25.05A6.25,6.25,0,0,1,150,18.8V.06h12.5V18.8a6.27,6.27,0,0,1-6.25,6.25Zm-112.5,0a6.25,6.25,0,0,1-6.25-6.25V.06H50V18.8a6.26,6.26,0,0,1-6.25,6.25Zm0,0" transform="translate(0 -0.06)"/></svg>