<svg id="图层_1" data-name="图层 1" xmlns="http://www.w3.org/2000/svg" viewBox="0 0 200 141.07"><title>物流管理</title><path d="M189.29,147.32H174.75a28.54,28.54,0,0,0-56.64,0h-11a10.72,10.72,0,0,1-10.71-10.71V40.18a10.72,10.72,0,0,1,10.71-10.72h82.15A10.72,10.72,0,0,1,200,40.18v96.43a10.72,10.72,0,0,1-10.71,10.71m-110.72,0H71.18a28.55,28.55,0,0,0-56.65,0H7.14A7.14,7.14,0,0,1,0,140.18V100.89c0-14.27,24.43-50,35.71-50H78.57A7.14,7.14,0,0,1,85.71,58v82.14a7.14,7.14,0,0,1-7.14,7.14M64.28,68.75s-11.25-.52-24.76,0C33.75,69,17.86,90,17.86,100.89v3.57H64.28V68.75M42.86,133A17.86,17.86,0,1,1,25,150.89,17.85,17.85,0,0,1,42.86,133m104.46,0a18.75,18.75,0,1,1-18.75,18.75A18.74,18.74,0,0,1,147.32,133" transform="translate(0 -29.46)"/></svg>