<?xml version="1.0" encoding="utf-8"?>
<!-- Generator: Adobe Illustrator 22.0.1, SVG Export Plug-In . SVG Version: 6.00 Build 0)  -->
<svg version="1.1" id="图层_1" xmlns="http://www.w3.org/2000/svg" xmlns:xlink="http://www.w3.org/1999/xlink" x="0px" y="0px"
	 viewBox="0 0 200 200" style="enable-background:new 0 0 200 200;" xml:space="preserve">
<g>
	<g>
		<path d="M100,0C44.8,0,0,44.8,0,100c0,55.2,100,100,100,100s100-44.8,100-100C200,44.8,155.2,0,100,0z M109.1,152.5
			c-2.5,2.3-5.4,3.4-8.5,3.4c-2.8,0.1-5.4-0.9-8-2.9c-2.6-2-4.1-4.8-4.5-8.5c-0.4-3.7,0.7-6.8,3.3-9.3c2.6-2.5,5.6-3.8,9-3.8
			c3.4,0,6.4,1.2,8.9,3.6c2.5,2.4,3.8,5.3,3.8,8.7C112.9,147.3,111.6,150.2,109.1,152.5z M132.1,74.8c-0.2,4.1-1.1,7.7-2.8,10.6
			c-1.6,3-4.6,6.1-9,9.4c-4.3,3.3-7,5.5-8.1,6.5c-1,1-1.8,2.2-2.4,3.5c-0.5,1.4-0.8,3.2-0.8,5.6v10.3c0,1.5-0.6,2.9-1.7,4
			c-1.1,1.2-3.2,1.9-6.2,2c-3,0.2-5.3-0.4-6.8-1.7c-1.5-1.3-2.3-3.2-2.3-5.7v-9.2c0-5.7,0.8-10,2.4-12.9c1.6-2.8,3.8-5.4,6.6-7.8
			l4-3.1c2.6-2,4.8-4.3,6.9-6.8c2-2.6,2.9-5.1,2.6-7.8c-0.3-2.9-2-5.4-5.1-7.6c-3.1-2.2-6.5-3.4-10.2-3.6c-4.4-0.2-8,0.5-10.8,2.3
			c-2.8,1.7-4.8,3.6-6,5.6c-1.2,2-2.1,4.4-2.7,7.1c-0.6,2.8-1.2,4.7-1.8,5.7c-0.6,1-1.6,1.8-2.9,2.2c-1.3,0.5-2.5,0.7-3.7,0.7
			c-2,0.1-3.8-0.4-5.4-1.3c-1.6-0.9-2.7-2.4-3.1-4.4c-0.5-2-0.4-4.4,0.1-7.3c0.8-4.3,1.9-7.8,3.2-10.5c1.3-2.6,3.1-5.1,5.3-7.4
			c2.2-2.3,4.8-4.2,7.8-5.6c3-1.4,6-2.5,9.1-3.2c3.1-0.7,6.3-1.1,9.6-1.1c4.3-0.1,8.3,0.5,11.9,1.6c3.6,1.1,6.8,2.7,9.4,4.5
			c2.6,1.9,4.8,3.7,6.5,5.6c1.7,1.9,3.2,4.6,4.5,8.1C131.7,67,132.3,70.7,132.1,74.8z"/>
	</g>
</g>
</svg>
