<?xml version="1.0" encoding="utf-8"?>
<!-- Generator: Adobe Illustrator 22.0.1, SVG Export Plug-In . SVG Version: 6.00 Build 0)  -->
<svg version="1.1" id="图层_1" xmlns="http://www.w3.org/2000/svg" xmlns:xlink="http://www.w3.org/1999/xlink" x="0px" y="0px"
	 viewBox="0 0 200 200" style="enable-background:new 0 0 200 200;" xml:space="preserve">
<path d="M99.1,86.2c-7.1,0-13.3,5.8-13.3,13.3c0,7.1,5.8,13.3,13.3,13.3s13.3-5.8,13.3-13.3C112.4,92.4,106.7,86.2,99.1,86.2z"/>
<path d="M100,0C44.9,0,0,44.9,0,100s44.9,100,100,100s100-44.9,100-100C200.5,44.9,155.6,0,100,0z M145.4,59.7L125,121.9
	c-0.5,1.5-2,3.1-3.6,3.6l-62.2,20.4c-1.5,0.5-3.6,0.5-4.1-0.5c-1-1-1.5-2.6-0.5-4.1L75,79.1c0.5-1.5,2-3.1,3.6-3.6l62.2-20.4
	c1.5-0.5,3.6-0.5,4.1,0.5C145.9,56.6,146.4,58.2,145.4,59.7L145.4,59.7z"/>
</svg>
