<?xml version="1.0" encoding="utf-8"?>
<!-- Generator: Adobe Illustrator 22.0.1, SVG Export Plug-In . SVG Version: 6.00 Build 0)  -->
<svg version="1.1" id="图层_1" xmlns="http://www.w3.org/2000/svg" xmlns:xlink="http://www.w3.org/1999/xlink" x="0px" y="0px"
	 viewBox="0 0 200 200" style="enable-background:new 0 0 200 200;" xml:space="preserve">
<path d="M121.5,116.3c-13.7,12.2-21.5,29.7-21.5,48c0,13.2,4,25.5,10.8,35.7H7.1c-4,0-7.1-3.2-7.1-7.1v-21.4
	c0-38,66.6-57.2,100-57.2C106.2,114.3,113.6,114.9,121.5,116.3L121.5,116.3z M100,100c-27.6,0-50-22.4-50-50v0
	C50,28.5,63.5,8.8,84.1,2.5C118.5-8.2,150,17.2,150,50C150,77.6,127.6,100,100,100z M189.5,146.5c5.8,0,10.5,4.7,10.5,10.5v0.4
	c0,5.8-4.7,10.5-10.5,10.5h-21.6v21.6c0,5.8-4.7,10.5-10.5,10.5H157c-5.8,0-10.5-4.7-10.6-10.5v-21.6h-21.5
	c-5.8,0-10.6-4.7-10.6-10.6V157c0.1-5.8,4.8-10.5,10.6-10.5h21.5v-21.7c0-5.8,4.7-10.5,10.6-10.5h0.3c5.8,0,10.5,4.7,10.5,10.5v21.7
	L189.5,146.5L189.5,146.5z"/>
</svg>
