<?xml version="1.0" encoding="utf-8"?>
<!-- Generator: Adobe Illustrator 22.0.1, SVG Export Plug-In . SVG Version: 6.00 Build 0)  -->
<svg version="1.1" id="图层_1" xmlns="http://www.w3.org/2000/svg" xmlns:xlink="http://www.w3.org/1999/xlink" x="0px" y="0px"
	 viewBox="0 0 200 200" style="enable-background:new 0 0 200 200;" xml:space="preserve">
<g>
	<path d="M100.1,0c11.6-0.2,9.2,11.7,9.2,22.8c0,4.7,0.8,10.6-1,13.6c-1.3,2.2-3.5,3.5-6.5,4c-1.7,0.3-3.4-0.4-4.4-0.9
		c-6.4-3.3-4.6-12.8-4.6-22.1c0-3.9-0.8-9.1,0.4-12.1C94.6,1.9,96.8,1.4,100.1,0L100.1,0z"/>
	<path d="M40.7,20c2.7,0,4.6,0.7,6.1,1.9c3.9,4.7,7.7,9.5,11.6,14.2c1.9,2.5,4.8,4.8,6.1,7.8c1.8,4.3-0.8,8.5-3.5,10
		c-2.8,1.7-7.1,1.2-9.4-0.5c-2.8-2-5-5.9-7.1-8.6c-2.1-2.6-4.3-5.2-6.4-7.8c-2.9-3.8-7.7-8.2-3.1-14.1C36.4,21.1,38.2,21,40.7,20
		L40.7,20z"/>
	<path d="M159.7,22.8c6-0.1,11.7,4.5,9.1,11c-1.3,3.2-4.3,5.2-6.3,7.6c-2.7,3-5.4,6-8.1,9c-1.4,1.8-3,4.1-4.9,5.3
		c-2.1,1.4-6.3,1.9-8.8,0.4c-3.3-1.9-5.8-7-3.1-11.4c2.7-3,5.3-5.9,8-8.9c2.1-2.3,4.2-4.7,6.3-7c1.4-1.7,2.8-3.7,4.7-4.9
		C157.6,23.6,158.6,23.2,159.7,22.8L159.7,22.8z"/>
	<path d="M151.1,169.5H48.6v-47c0-9.5-0.6-19.9,1.6-27.3c4.1-13.8,12-23.4,23.2-30.1c4.9-2.9,10.4-5,17-6.4c2.2-0.2,4.3-0.4,6.5-0.6
		c2,0,4-0.1,6-0.1c4.4,0.7,8.5,0.9,12.2,2.1c17.3,5.4,29.2,17.6,34.4,35.2c2.2,7.4,1.6,17.8,1.6,27.2
		C151.1,138.1,151.1,153.8,151.1,169.5L151.1,169.5z"/>
	<path d="M7.2,73.5c3-0.1,5.1,0.6,7.5,1.2c4.6,0.9,9.2,1.8,13.8,2.7c3.5,0.8,7.2,0.9,9.3,2.9c2.2,2.1,3.8,6.6,1.7,10.2
		c-1.2,1.9-3.2,3.4-5.7,4c-2.6,0.6-5.3-0.4-7.4-0.9c-4.6-0.9-9.2-1.8-13.8-2.7c-3.5-0.8-7.3-0.9-9.7-2.8c-3.4-2.6-3.9-9.5-0.3-12.3
		C4,74.5,5.4,74.3,7.2,73.5L7.2,73.5z"/>
	<path d="M190.9,77.7c6.9-0.1,11.7,7.2,7.3,13.1c-2.4,3.2-6.5,3.1-11.2,4c-4.7,0.7-9.3,1.4-14,2.1c-2.1,0.4-4.8,1.2-7.2,0.7
		c-2.7-0.6-5.1-2.3-6.1-4.6c-2-4.6,0.6-9.4,4-10.9c1.9-0.9,4.4-0.8,6.8-1.3c4.6-0.7,9.3-1.5,13.9-2.2
		C186.5,78.3,188.7,78,190.9,77.7L190.9,77.7z"/>
	<path d="M38.6,176.6h100.3c12.7,0,23.9-2.3,28.9,6.1c0.9,1.6,2,4.1,1.5,7c-2.2,12.7-15.6,10.2-30,10.2l-72,0H46.2
		c-3.6,0-7.9,0.4-10.6-0.6c-5.7-2.2-10.5-9.8-6.2-17c1.2-2,3.3-3.9,5.7-4.8C36.3,177.1,37.4,176.8,38.6,176.6L38.6,176.6z"/>
</g>
</svg>
